<svg fill="none" height="100%" width="100%" viewBox="0 0 1000 1000" xmlns:xlink="http://www.w3.org/1999/xlink" xmlns="http://www.w3.org/2000/svg"><defs><clipPath id="i0"><rect height="1000" width="1000" y="0" x="0" /></clipPath><linearGradient id="i7" gradientUnits="userSpaceOnUse" spreadMethod="pad" x2="-96" y2="-204" x1="34" y1="124"><stop offset="0%" stop-color="#ff9000" /><stop offset="50%" stop-color="#ffae3d" /><stop offset="100%" stop-color="#ffcc7b" /></linearGradient><linearGradient id="i8" gradientUnits="userSpaceOnUse" spreadMethod="pad" x2="-96" y2="-204" x1="34" y1="124"><stop offset="0%" stop-color="#6c00ff" /><stop offset="50%" stop-color="#9a3dff" /><stop offset="100%" stop-color="#c97bff" /></linearGradient></defs><g clip-path="url(#i0)"><g transform="matrix(1,0,0,1,500,500)"><rect height="1000" width="1000" y="-500" x="-500" stroke-width="0" stroke="#ffffff" fill="#20274a" /></g><g><g transform="translate(314,90)"><g transform="rotate(0)"><animateTransform repeatCount="indefinite" type="rotate" attributeName="transform" dur="2.6s" begin="0s" calcMode="spline" values="0; 217" keyTimes="0; 1" keySplines="0 0 1 1" fill="freeze" /><g transform="scale(1.165,1.165) translate(110,264.283)"><g transform="matrix(0.859,0,0,0.859,-15.543,-37.586)"><g transform="matrix(1,0,0,1,-102,-266)"><ellipse ry="150" rx="150" cy="0" cx="0" stroke-width="0" stroke="#ffffff" fill="url(#i7)" /></g></g></g></g></g></g><g><g transform="translate(866,284)"><g transform="rotate(0)"><animateTransform repeatCount="indefinite" type="rotate" attributeName="transform" dur="2.6s" begin="0s" calcMode="spline" values="0; 100" keyTimes="0; 1" keySplines="0 0 1 1" fill="freeze" /><g transform="scale(0.667,0.667) translate(110,266)"><g transform="matrix(1,0,0,1,-102,-266)"><ellipse ry="150" rx="150" cy="0" cx="0" stroke-width="0" stroke="#ffffff" fill="url(#i8)" /></g></g></g></g></g><g transform="matrix(3.314,0,0,3.805,654.282,655.109)"><g transform="matrix(1,0,0,1,52.574,51.984)"><path fill="#a08ec3" d="M4.03,34.016C4.868,28.28,5.255,22.484,5.157,16.701C5.134,13.808,4.974,10.919,4.745,8.038C4.524,5.158,4.174,2.289,3.773,-0.57C2.954,-6.287,1.796,-11.95,0.361,-17.538C-0.36,-20.332,-1.156,-23.106,-2.027,-25.855C-2.902,-28.605,-3.837,-31.333,-4.915,-34.016C-4.915,-34.016,-5.255,-33.876,-5.255,-33.876C-4.219,-31.201,-3.318,-28.463,-2.482,-25.714C-1.648,-22.963,-0.888,-20.189,-0.204,-17.396C1.156,-11.81,2.239,-6.158,2.982,-0.462C3.345,2.387,3.658,5.243,3.842,8.107C4.033,10.97,4.156,13.838,4.143,16.706C4.169,22.442,3.713,28.173,2.814,33.824C2.814,33.824,4.03,34.016,4.03,34.016Z" /></g><g transform="matrix(1,0,0,1,38.543,60.624)"><path fill="#a08ec3" d="M-18.829,-27.523C-16.324,-26.142,-13.976,-24.513,-11.697,-22.794C-9.422,-21.069,-7.25,-19.208,-5.171,-17.249C-3.094,-15.289,-1.117,-13.221,0.754,-11.059C2.616,-8.889,4.36,-6.618,5.993,-4.268C9.26,0.432,11.982,5.508,14.174,10.805C16.314,16.124,17.904,21.667,18.91,27.32C18.91,27.32,17.697,27.523,17.697,27.523C16.793,21.94,15.311,16.45,13.279,11.165C11.195,5.9,8.579,0.835,5.413,-3.874C3.831,-6.227,2.137,-8.508,0.32,-10.691C-1.503,-12.867,-3.436,-14.953,-5.473,-16.936C-7.51,-18.916,-9.643,-20.8,-11.882,-22.553C-14.123,-24.298,-16.445,-25.963,-18.91,-27.372C-18.91,-27.372,-18.829,-27.523,-18.829,-27.523Z" /></g><g transform="matrix(1,0,0,1,45.787,54.901)"><path fill="#8472b0" d="M-8.27,-32.434C-6.446,-30.229,-4.858,-27.851,-3.37,-25.415C-1.887,-22.976,-0.55,-20.449,0.665,-17.863C1.878,-15.277,2.956,-12.628,3.902,-9.93C4.838,-7.228,5.626,-4.476,6.283,-1.691C7.596,3.88,8.267,9.602,8.361,15.335C8.4,21.068,7.842,26.808,6.702,32.434C6.702,32.434,5.501,32.176,5.501,32.176C6.71,26.651,7.345,21.002,7.395,15.338C7.389,9.676,6.817,4.005,5.6,-1.538C4.993,-4.308,4.253,-7.05,3.365,-9.747C2.467,-12.44,1.434,-15.09,0.268,-17.682C-0.9,-20.271,-2.192,-22.808,-3.631,-25.26C-5.075,-27.707,-6.624,-30.106,-8.4,-32.322C-8.4,-32.322,-8.27,-32.434,-8.27,-32.434Z" /></g><g transform="matrix(1,0,0,1,66.563,58.001)"><path fill="#c8badb" d="M8.871,-29.712C7.082,-27.752,5.505,-25.62,4.016,-23.431C2.531,-21.237,1.179,-18.957,-0.064,-16.617C-1.304,-14.275,-2.423,-11.868,-3.421,-9.411C-4.41,-6.95,-5.265,-4.436,-5.999,-1.885C-7.467,3.218,-8.345,8.488,-8.691,13.794C-8.985,19.104,-8.729,24.447,-7.927,29.712C-7.927,29.712,-6.801,29.527,-6.801,29.527C-7.671,24.353,-8.008,19.091,-7.798,13.842C-7.537,8.597,-6.75,3.369,-5.374,-1.712C-4.686,-4.251,-3.875,-6.76,-2.932,-9.219C-1.978,-11.673,-0.902,-14.082,0.295,-16.43C1.494,-18.777,2.806,-21.068,4.25,-23.275C5.698,-25.477,7.241,-27.63,8.986,-29.602C8.986,-29.602,8.871,-29.712,8.871,-29.712Z" /></g><g transform="matrix(1,0,0,1,56.856,83.903)"><path fill="#f4e34e" d="M8.941,-6.446C8.941,-6.446,-8.941,-6.446,-8.941,-6.446C-11.911,-4.929,-13.796,-2.673,-13.796,-0.15C-13.796,2.543,-11.647,4.935,-8.324,6.446C-8.324,6.446,8.324,6.446,8.324,6.446C11.647,4.935,13.796,2.543,13.796,-0.15C13.796,-2.673,11.911,-4.929,8.941,-6.446Z" /></g><g transform="matrix(1,0,0,1,65.6,84.075)"><path fill="#f8ed90" d="M-1.485,-5.205C0.278,-5.411,2.639,-4.082,3.248,-1.41C4.081,3.862,-1.2,5.411,-4.081,4.071C-1.57,3.441,1.175,2.29,1.256,-0.306C1.396,-1.664,0.589,-2.974,0.576,-3.013C0.463,-3.173,0.239,-3.569,-0.181,-4.027C-0.552,-4.471,-1.004,-4.844,-1.485,-5.205Z" /></g><g transform="matrix(1,0,0,1,56.756,77.303)"><path fill="#619cca" d="M9.876,0.62C9.876,0.62,-9.876,0.62,-9.876,0.62C-9.876,0.62,-9.876,-0.62,-9.876,-0.62C-9.876,-0.62,9.876,-0.62,9.876,-0.62C9.876,-0.62,9.876,0.62,9.876,0.62Z" /></g></g><g transform="matrix(4.853,0,0,4.853,5.348,593.348)"><g transform="matrix(1,0,0,1,60.263,35.74)"><path fill="#8f4117" d="M17.833,-4.028C9.183,-4.981,-5.835,-3.851,-9.41,-5.258C-12.992,-6.668,-15.969,-14.39,-18.607,-18.312C-22.427,-23.992,-23.817,-23.178,-27.863,-24.39C-27.863,-24.39,-21.783,13.984,-21.783,13.984C-21.783,13.984,1.874,24.39,1.874,24.39C1.874,24.39,25.869,23.421,25.869,23.421C26.262,23.395,27.194,16.029,27.174,15.143C27.052,9.746,27.864,-2.923,17.833,-4.028Z" /></g><g transform="matrix(1,0,0,1,65.255,74.922)"><path fill="#403a37" d="M-0.178,17.138C-0.178,17.138,1.428,17.138,1.428,17.138C1.428,17.138,1.428,-17.138,1.428,-17.138C1.428,-17.138,-1.428,-17.138,-1.428,-17.138C-1.428,-17.138,-0.178,17.138,-0.178,17.138Z" /></g><g transform="matrix(1,0,0,1,80.772,71.937)"><path fill="#403a37" d="M-0.178,17.138C-0.178,17.138,1.428,17.138,1.428,17.138C1.428,17.138,1.428,-17.138,1.428,-17.138C1.428,-17.138,-1.428,-17.138,-1.428,-17.138C-1.428,-17.138,-0.178,17.138,-0.178,17.138Z" /></g><g transform="matrix(1,0,0,1,30.109,75.718)"><path fill="#403a37" d="M-1.428,16.057C-1.428,16.057,0.298,16.057,0.298,16.057C0.298,16.057,1.428,-16.057,1.428,-16.057C1.428,-16.057,-1.428,-16.057,-1.428,-16.057C-1.428,-16.057,-1.428,16.057,-1.428,16.057Z" /></g><g transform="matrix(1,0,0,1,47.134,76.539)"><path fill="#403a37" d="M-1.123,14.058C-1.123,14.058,0.602,14.036,0.602,14.036C0.602,14.036,1.428,-14.057,1.428,-14.057C1.428,-14.057,-1.428,-14.023,-1.428,-14.023C-1.428,-14.023,-1.123,14.058,-1.123,14.058Z" /></g><g transform="matrix(1,0,0,1,36.951,32.393)"><path fill="#60280b" d="M3.904,16.544C4.659,11.048,-1.726,-22.67,-4.551,-23.667C-5.911,-24.147,-12.468,-23.92,-18.436,-23.592C-24.055,-23.283,-28.182,-18.2,-27.324,-12.639C-27.324,-12.639,-23.368,12.964,-23.368,12.964C-21.64,24.147,28.182,16.382,28.182,16.382C28.182,16.382,3.904,16.544,3.904,16.544Z" /></g><g transform="matrix(1,0,0,1,73.297,57.301)"><path fill="#5f2607" d="M-8.54,8.212C-8.54,8.212,10.408,3.745,10.408,3.745C11.831,3.419,12.83,2.181,12.78,0.804C12.78,0.804,12.655,-2.641,12.655,-2.641C12.535,-5.935,9.245,-8.212,5.861,-7.344C5.861,-7.344,-12.829,-2.542,-12.829,-2.542C-12.829,-2.542,-8.54,8.212,-8.54,8.212Z" /></g><g transform="matrix(1,0,0,1,37.759,37.274)"><path fill="#8f4117" d="M26.999,28.239C26.999,28.239,-6.684,28.012,-6.684,28.012C-15.138,27.593,-22.133,21.29,-23.426,12.924C-23.426,12.924,-28.526,-20.07,-28.526,-20.07C-29.213,-24.518,-24.921,-28.239,-20.684,-26.719C-20.226,-26.555,-19.91,-26.367,-19.801,-26.152C-17.781,-22.148,-14.648,-8.071,-9.868,-3.966C-4.202,0.9,10.956,-1.635,21.56,-2.56C21.56,-2.56,27.41,-3.421,28.388,1.645C29.213,5.929,27.195,23.249,26.999,28.239Z" /></g><g transform="matrix(1,0,0,1,42.62,38.033)"><path fill="#b7480b" d="M-25.545,-27.479C-24.695,-27.254,-24.666,-27.264,-23.712,-25.304C-21.753,-21.093,-17.458,-8.706,-14.336,-6.225C-14.336,-6.225,-13.89,-5.806,-13.89,-5.806C-9.401,-1.946,5.086,-3.819,11.348,-4.437C11.417,-4.444,16.476,-4.889,16.409,-4.883C20.931,-5.228,24.468,-3.338,24.96,1.135C25.545,6.701,22.778,23.213,22.138,27.479C21.754,13.814,23.554,2.013,21.397,-0.46C19.658,-2.632,15.541,-1.499,14.572,-1.505C14.572,-1.505,11.684,-1.181,11.684,-1.181C-10.783,1.237,-15.849,-0.391,-20.008,-11.082C-22.621,-17.854,-24.182,-26.445,-24.933,-27.105C-25.108,-27.258,-25.325,-27.375,-25.545,-27.479Z" /></g></g><g><g transform="translate(304,582)"><animateTransform repeatCount="indefinite" type="translate" attributeName="transform" dur="2.6s" begin="0s" calcMode="spline" values="304 582; 328 486; 304 582" keyTimes="0; 0.48718; 1" keySplines="0.167 0.167 0.667 1; 0.333 0 0.833 0.833" fill="freeze" /><g transform="rotate(-16) scale(6.122,6.122) translate(-30.162,-29.919)"><g transform="translate(28.634,32.879)"><g transform="rotate(-23)"><animateTransform repeatCount="indefinite" type="rotate" attributeName="transform" dur="2.6s" begin="0s" calcMode="spline" values="-23; -23; -28; -23; -23" keyTimes="0; 0.166667; 0.51282; 0.782051; 1" keySplines="0 0 1 1; 0.333 0 0.667 1; 0.333 0 0.667 1; 0 0 1 1" fill="freeze" /><g transform="scale(0.934,0.934) translate(-10.002,-11.31)"><g transform="translate(15.251,8.511)"><g transform="rotate(39)"><animateTransform repeatCount="indefinite" type="rotate" attributeName="transform" dur="2.6s" begin="0s" calcMode="spline" values="39; 28; 39; 39" keyTimes="0; 0.384616; 0.730769; 1" keySplines="0.318 0 0.667 1; 0.333 0 0.667 1; 0 0 1 1" fill="freeze" /><g transform="scale(1.101,1.101) translate(-13.688,-7.099)"><g transform="matrix(1,0,0,1,33.108,42.578)"><path fill="#fec039" d="M4.954,-7.449C4.954,-7.449,2.389,-3.207,1.747,-1.995C1.105,-0.783,-0.32,3.067,-0.641,4.635C-0.962,6.203,-0.214,8.718,-1.426,9.101C-2.638,9.484,-3.528,6.133,-3.671,3.602C-3.814,1.072,-4.67,-0.106,-4.813,-1.353C-4.955,-2.601,-3.065,-3.278,-2.031,-3.563C-0.998,-3.848,0.973,-9.484,0.973,-9.484C0.973,-9.484,4.954,-7.449,4.954,-7.449Z" /></g><g transform="matrix(1,0,0,1,28.559,20.636)"><path fill="#4e3b60" d="M-10.813,-17.109C-10.813,-17.109,-9.102,-16.492,-8.484,-14.639C-8.484,-14.639,3.54,-13.092,9.624,-12.607C15.707,-12.12,21.838,-10.455,20.079,-3.137C18.321,4.183,11.667,17.109,11.667,17.109C11.667,17.109,5.108,12.833,5.108,12.833C5.108,12.833,6.487,10.552,6.677,8.602C6.867,6.654,7.2,5.038,8.103,3.423C9.006,1.807,9.196,-0.714,9.434,-2.9C9.434,-2.9,-8.912,-1.855,-8.912,-1.855C-8.912,-1.855,-21.838,-11.667,-21.838,-11.667C-21.838,-11.667,-10.813,-17.109,-10.813,-17.109Z" /></g><g transform="matrix(1,0,0,1,22.966,14.065)"><path fill="#261a31" d="M9.592,3.982C8.468,3.398,6.92,2.779,5.997,2.34C4.571,1.664,3.502,0.38,1.292,-0.297C-2.246,-1.381,-2.7,-1.652,-5.409,-3.184C-8.118,-4.717,-9.592,-4.37,-9.592,-4.37C-9.592,-4.37,-8.862,0.508,-8.862,0.508C-8.862,0.508,-3.318,4.717,-3.318,4.717C-3.318,4.717,9.592,3.982,9.592,3.982Z" /></g></g></g></g></g></g></g></g></g></g><g><g transform="translate(304,582)"><animateTransform repeatCount="indefinite" type="translate" attributeName="transform" dur="2.6s" begin="0s" calcMode="spline" values="304 582; 328 486; 304 582" keyTimes="0; 0.48718; 1" keySplines="0.167 0.167 0.667 1; 0.333 0 0.833 0.833" fill="freeze" /><g transform="rotate(-16) scale(6.122,6.122) translate(-30.162,-29.919)"><g transform="translate(28.634,32.879)"><g transform="rotate(-23)"><animateTransform repeatCount="indefinite" type="rotate" attributeName="transform" dur="2.6s" begin="0s" calcMode="spline" values="-23; -23; -28; -23; -23" keyTimes="0; 0.166667; 0.51282; 0.782051; 1" keySplines="0 0 1 1; 0.333 0 0.667 1; 0.333 0 0.667 1; 0 0 1 1" fill="freeze" /><g transform="scale(0.934,0.934) translate(-10.002,-11.31)"><g transform="matrix(1,0,0,1,12.439,64.267)"><path fill="#1b1223" d="M-3.007,-0.21C-3.547,0.957,2.354,2.462,2.354,2.462C2.354,2.462,3.546,-0.915,3.546,-0.915C3.546,-0.915,-1.965,-2.462,-3.007,-0.21Z" /></g><g transform="matrix(1,0,0,1,18.322,70.303)"><path fill="#fec039" d="M-0.159,-5.844C-0.159,-5.844,-0.692,-2.513,-0.661,-1.247C-0.63,0.017,1.946,2.469,3.225,3.215C4.505,3.96,7.432,5.35,7.139,6.488C6.847,7.625,0.929,6.223,-0.4,5.964C-1.729,5.703,-3.183,5.552,-4.426,5.248C-5.668,4.943,-7.432,5.849,-7.381,3.883C-7.33,1.915,-5.218,-0.365,-5.247,-1.158C-5.277,-1.952,-5.46,-7.624,-5.46,-7.624C-5.46,-7.624,-0.906,-6.738,-0.159,-5.844Z" /></g><g transform="matrix(1,0,0,1,11.705,36.265)"><path fill="#4e3b60" d="M-4.827,-29.002C-4.827,-29.002,-10.43,-24.648,-8.12,-17.946C-5.04,-9.008,0.209,1.314,0.209,1.314C0.209,1.314,-1.432,4.234,-1.063,7.561C-0.693,10.889,-0.626,11.561,-1.097,13.577C-1.567,15.594,-2.037,16.198,-1.264,18.719C-0.492,21.239,-1.097,22.65,-2.273,27.793C-2.273,27.793,-0.929,26.313,6.465,29.002C6.465,29.002,9.825,10.049,10.128,5.108C10.43,0.168,9.791,-3.562,8.061,-9.493C6.33,-15.425,4.824,-21.581,4.824,-21.581C4.824,-21.581,5.759,-24.734,5.759,-24.734C5.759,-24.734,-4.827,-29.002,-4.827,-29.002Z" /></g></g></g></g></g></g></g><g><g transform="translate(304,582)"><animateTransform repeatCount="indefinite" type="translate" attributeName="transform" dur="2.6s" begin="0s" calcMode="spline" values="304 582; 328 486; 304 582" keyTimes="0; 0.48718; 1" keySplines="0.167 0.167 0.667 1; 0.333 0 0.833 0.833" fill="freeze" /><g transform="rotate(-16) scale(6.122,6.122) translate(-30.162,-29.919)"><g transform="translate(7.105,22.627)"><g transform="rotate(16)"><animateTransform repeatCount="indefinite" type="rotate" attributeName="transform" dur="2.6s" begin="0s" calcMode="spline" values="16; 16; 18; 4; 16" keyTimes="0; 0.128205; 0.410256; 0.820513; 1" keySplines="0 0 1 1; 0.167 0.167 0.833 1; 0.167 0.085 0.833 0.984; 0.167 0 0.833 0.733" fill="freeze" /><g transform="scale(0.948,0.948) translate(-5.628,-5.162)"><g transform="matrix(1,0,0,1,25.157,21.567)"><path fill="#4d6eb2" d="M-4.92,3.219C-5.23,3.045,-5.31,2.636,-5.087,2.359C-3.972,0.978,-1.008,-2.69,-0.369,-3.428C0.423,-4.342,1.293,-4.169,3.107,-3.777C4.921,-3.386,5.31,-2.817,5.129,-2.294C4.947,-1.769,3.952,-1.57,2.882,-1.503C1.811,-1.436,1.289,-1.184,0.352,-0.012C-0.585,1.159,-2.931,4.342,-2.931,4.342C-2.931,4.342,-4.92,3.219,-4.92,3.219Z" /></g><g transform="matrix(1,0,0,1,14.639,15.521)"><path fill="#f27273" d="M-1.711,-5.953C-1.711,-5.953,-3.957,-0.57,-3.957,-0.57C-3.957,-0.57,5.632,5.775,6.772,5.846C7.913,5.917,9.446,5.026,11.192,5.133C12.939,5.239,13.046,6.024,12.547,6.06C12.048,6.095,10.978,6.024,10.729,6.06C10.729,6.06,11.763,6.131,11.62,6.773C11.477,7.414,10.159,8.733,9.446,8.769C8.733,8.804,8.269,8.697,7.521,8.769C6.772,8.84,6.024,8.661,5.881,7.948C5.881,7.948,-2.495,6.736,-7.771,5.062C-13.046,3.386,-12.903,-0.214,-12.048,-3.101C-11.192,-5.988,-10.337,-8.84,-10.337,-8.84C-10.337,-8.84,-1.711,-5.953,-1.711,-5.953Z" /></g><g transform="matrix(1,0,0,1,7.715,10.298)"><path fill="#d14f4e" d="M0.08,2.264C1.513,1.965,2.913,1.932,4.307,1.441C4.307,1.441,5.213,-0.73,5.213,-0.73C5.213,-0.73,-3.413,-3.617,-3.413,-3.617C-3.413,-3.617,-4.269,-0.764,-5.124,2.122C-5.155,2.226,-5.184,2.33,-5.213,2.436C-3.456,3.617,-1.473,2.587,0.08,2.264Z" /></g></g></g></g></g></g></g><g><g transform="translate(304,582)"><animateTransform repeatCount="indefinite" type="translate" attributeName="transform" dur="2.6s" begin="0s" calcMode="spline" values="304 582; 328 486; 304 582" keyTimes="0; 0.48718; 1" keySplines="0.167 0.167 0.667 1; 0.333 0 0.833 0.833" fill="freeze" /><g transform="rotate(-16) scale(6.122,6.122) translate(-30.162,-29.919)"><g transform="translate(21.766,11.199)"><g transform="rotate(-5)"><animateTransform repeatCount="indefinite" type="rotate" attributeName="transform" dur="2.6s" begin="0s" calcMode="spline" values="-5; -1; -19; -5; -5" keyTimes="0; 0.25641; 0.512821; 0.769231; 1" keySplines="0.333 0 0.667 1; 0.333 0 0.667 1; 0.333 0 0.667 1; 0 0 1 1" fill="freeze" /><g transform="scale(0.876,0.876) translate(-16.69,-25.737)"><g transform="translate(16.887,9.765)"><path fill="#37383b" d="M-4.578,-4.505C-3.884,-4.465,-3.187,-4.601,-2.619,-5.001C-1.995,-5.442,-1.514,-5.957,-0.491,-6.503C1.096,-7.349,2.206,-6.134,3.951,-6.768C5.695,-7.402,7.335,-6.556,7.651,-4.758C7.969,-2.96,5.907,-1.902,4.321,-1.744C2.734,-1.586,2.84,-0.581,0.673,-0.369C-1.495,-0.158,-2.711,-0.687,-3.346,-0.369C-3.346,-0.369,-3.24,6.345,-5.302,7.402C-5.302,7.402,-5.724,5.552,-6.517,4.018C-7.311,2.485,-7.769,1.692,-7.875,-0.369C-7.969,-2.211,-6.448,-4.613,-4.578,-4.505Z" /></g><g transform="matrix(1,0,0,1,15.228,16.684)"><path fill="#f27273" d="M4.676,-8.805C4.676,-8.805,4.5,-6.197,5.064,-4.047C5.628,-1.897,6.587,2.773,3.415,2.915C3.415,2.915,3.891,4.95,3.891,4.95C3.891,4.95,4.878,7.238,3.178,7.986C1.316,8.805,-0.077,8.129,-1.279,7.44C-1.999,7.026,-2.504,6.322,-2.663,5.507C-2.663,5.507,-3.643,0.482,-3.643,0.482C-3.643,0.482,-6.221,1.26,-6.393,-0.734C-6.588,-2.991,-4.242,-3.165,-3.079,-2.037C-2.551,-4.153,-2.656,-7.677,-2.656,-7.677C-2.656,-7.677,-1.034,-8.242,0.482,-7.889C1.997,-7.536,3.936,-8.03,4.676,-8.805Z" /></g><g transform="matrix(1,0,0,1,16.205,19.792)"><path fill="#d14f4e" d="M2.439,-0.193C1.086,-0.059,-1.143,-0.266,-2.501,-1.859C-2.646,-2.028,-2.915,-1.883,-2.852,-1.67C-2.246,0.391,-1.015,2.028,2.915,1.842C2.915,1.842,2.439,-0.193,2.439,-0.193Z" /></g><g transform="matrix(1,0,0,1,18.911,12.293)"><path fill="#4d6eb2" d="M3.046,1.593C3.046,1.593,-2.47,2.391,-2.47,2.391C-3.173,2.492,-3.825,2.005,-3.927,1.302C-3.927,1.302,-4.135,-0.136,-4.135,-0.136C-4.236,-0.839,-3.749,-1.491,-3.046,-1.593C-3.046,-1.593,2.47,-2.39,2.47,-2.39C3.173,-2.492,3.825,-2.005,3.927,-1.302C3.927,-1.302,4.135,0.136,4.135,0.136C4.236,0.839,3.749,1.491,3.046,1.593Z" /></g><g transform="matrix(1,0,0,1,19.19,12.189)"><path fill="#fec039" d="M1.844,0.003C1.844,0.003,-1.769,0.525,-1.769,0.525C-1.914,0.546,-2.049,0.445,-2.07,0.299C-2.091,0.153,-1.99,0.018,-1.844,-0.003C-1.844,-0.003,1.768,-0.525,1.768,-0.525C1.914,-0.547,2.049,-0.444,2.07,-0.299C2.091,-0.152,1.99,-0.018,1.844,0.003Z" /></g></g></g></g></g></g></g></g></svg>
